<svg width="512" height="512" viewBox="0 0 512 512" fill="none" xmlns="http://www.w3.org/2000/svg">
  <!-- Background with rounded corners -->
  <rect width="512" height="512" rx="96" fill="url(#bgGradient)"/>
  
  <!-- Logo scaled and centered -->
  <g transform="translate(106, 115) scale(6.67)">
    <path d="M41.8667 28.1915C38.1046 35.2188 27.4164 41.9874 26.6136 40.7878C25.8107 39.5882 31.6922 32.1321 30.6275 26.3921C29.5277 20.4629 10.5743 13.196 18.5857 13.196C20.9941 13.196 28.7946 15.9395 34.6415 13.196C39.2858 11.0167 39.1855 9.41641 40.2611 5.39838C43.4722 -6.598 45.6288 21.1641 41.8667 28.1915Z" fill="#00BFF0" stroke="#00BFF1"/>
    <ellipse cx="29.022" cy="5.39838" rx="7.22513" ry="5.39838" fill="#00BFF0"/>
    <path d="M2.85449 9.05017C3.30576 8.61275 3.8793 8.3555 4.52637 8.52576C5.12794 8.68428 5.66501 9.18442 6.15625 9.91833C6.83465 10.9321 8.52581 13.9606 13.1133 15.1097C15.611 15.7352 18.4946 17.4523 20.9404 19.5902C23.3833 21.7257 25.4635 24.346 26.2852 26.8344C27.2114 29.6406 27.429 31.9747 27.085 34.0111C26.7402 36.0508 25.8388 37.7519 24.5947 39.3011C24.464 39.4639 24.3226 39.6167 24.1768 39.765C23.714 39.4996 23.1265 39.1482 22.4717 38.7201C20.884 37.6821 18.9169 36.2097 17.3525 34.4564C15.7827 32.697 14.3986 30.484 13.4023 28.6976C12.9058 27.8071 12.5082 27.0281 12.2354 26.472C12.099 26.1941 11.9937 25.9716 11.9229 25.8197C11.8876 25.7441 11.8606 25.6859 11.8428 25.6469C11.834 25.6276 11.8276 25.6126 11.8232 25.6029C11.8212 25.5984 11.8194 25.5945 11.8184 25.5922C11.8179 25.5911 11.8176 25.5898 11.8174 25.5892C11.7049 25.337 11.4084 25.2228 11.1562 25.3353C10.9043 25.448 10.7909 25.7444 10.9033 25.9965H10.9043V25.9974C10.9047 25.9983 10.9056 25.9999 10.9062 26.0013C10.9075 26.0041 10.9089 26.0082 10.9111 26.0131C10.9161 26.024 10.9241 26.0402 10.9336 26.0609C10.9526 26.1026 10.98 26.164 11.0166 26.2426C11.09 26.3999 11.1983 26.6281 11.3379 26.9125C11.6169 27.481 12.0225 28.2762 12.5293 29.1849C13.5399 30.9972 14.9654 33.2831 16.6064 35.1224C18.2532 36.9681 20.3014 38.4957 21.9248 39.557C22.4621 39.9083 22.9562 40.2087 23.376 40.4554C22.0931 41.3872 20.4338 41.8871 18.585 41.8871C17.2684 41.8869 15.5981 41.3652 13.8379 40.5043C12.0651 39.6371 10.1519 38.4018 8.33691 36.9222C4.72329 33.9762 1.41456 29.9902 0.4375 25.9086C-0.322955 22.7306 -0.0412925 17.3486 0.890625 13.473C1.12505 12.4982 1.40436 11.604 1.72461 10.8549C2.04149 10.1138 2.41436 9.47686 2.85449 9.05017Z" fill="#40E085"/>
  </g>
  
  <defs>
    <linearGradient id="bgGradient" x1="0" y1="0" x2="512" y2="512" gradientUnits="userSpaceOnUse">
      <stop stop-color="#ffffff"/>
      <stop offset="1" stop-color="#f0f9ff"/>
    </linearGradient>
  </defs>
</svg>
