<svg width="215" height="52" viewBox="0 0 215 52" fill="none" xmlns="http://www.w3.org/2000/svg">
<path d="M47.0082 30.1915C43.2461 37.2188 32.5579 43.9874 31.755 42.7878C30.9522 41.5882 36.8337 34.1321 35.769 28.3921C34.6692 22.4629 15.7158 15.196 23.7272 15.196C26.1355 15.196 33.936 17.9395 39.783 15.196C44.4273 13.0167 44.327 11.4164 45.4025 7.39838C48.6137 -4.598 50.7703 23.1641 47.0082 30.1915Z" fill="#00BFF0" stroke="#00BFF1"/>
<ellipse cx="34.1635" cy="7.39838" rx="7.22513" ry="5.39838" fill="#00BFF0"/>
<path d="M7.99597 11.0505C8.44727 10.613 9.02073 10.3557 9.66785 10.5261C10.2695 10.6846 10.8064 11.1846 11.2977 11.9186C11.9761 12.9324 13.6672 15.9609 18.2548 17.11C20.7525 17.7356 23.636 19.4525 26.0819 21.5905C28.5249 23.7261 30.6051 26.3462 31.4266 28.8347C32.3529 31.641 32.5706 33.975 32.2264 36.0114C31.8817 38.0511 30.9803 39.7522 29.7362 41.3015C29.6055 41.4642 29.4641 41.617 29.3182 41.7653C28.8555 41.4999 28.268 41.1485 27.6132 40.7204C26.0255 39.6824 24.0584 38.2099 22.494 36.4567C20.9243 34.6973 19.54 32.4843 18.5438 30.6979C18.0473 29.8076 17.6497 29.0283 17.3768 28.4724C17.2405 28.1946 17.1352 27.9719 17.0643 27.82C17.0291 27.7446 17.0021 27.6862 16.9843 27.6472C16.9755 27.6281 16.9691 27.6129 16.9647 27.6032C16.9627 27.5988 16.9609 27.5948 16.9598 27.5925L16.9589 27.5895C16.8464 27.3374 16.5499 27.2231 16.2977 27.3356C16.0458 27.4483 15.9324 27.7447 16.0448 27.9968H16.0458V27.9977C16.0462 27.9986 16.0471 28.0004 16.0477 28.0016C16.0489 28.0044 16.0505 28.0086 16.0526 28.0134C16.0575 28.0243 16.0657 28.0406 16.0751 28.0612C16.094 28.1029 16.1215 28.1645 16.1581 28.2429C16.2315 28.4002 16.3399 28.6286 16.4794 28.9128C16.7584 29.4813 17.1641 30.2766 17.6708 31.1852C18.6814 32.9975 20.1069 35.2835 21.7479 37.1227C23.3947 38.9683 25.4429 40.496 27.0663 41.5573C27.6036 41.9086 28.0977 42.209 28.5175 42.4557C27.2346 43.3875 25.5753 43.8874 23.7264 43.8874C22.4099 43.8872 20.7396 43.3656 18.9794 42.5046C17.2066 41.6374 15.2934 40.4022 13.4784 38.9225C9.8647 35.9765 6.55606 31.9906 5.57898 27.9089C4.81844 24.7309 5.10016 19.349 6.0321 15.4733C6.26655 14.4984 6.54581 13.6044 6.86609 12.8552C7.18296 12.114 7.55585 11.4772 7.99597 11.0505Z" fill="#40E085"/>
<path d="M75.4205 10.7273V34H71.6705L60.7045 18.1477H60.5114V34H56.2955V10.7273H60.0682L71.0227 26.5909H71.2273V10.7273H75.4205ZM90.9574 26.6591V16.5455H95.071V34H91.0824V30.8977H90.9006C90.5066 31.875 89.8589 32.6742 88.9574 33.2955C88.0634 33.9167 86.9612 34.2273 85.6506 34.2273C84.5066 34.2273 83.4953 33.9735 82.6165 33.4659C81.7453 32.9508 81.0634 32.2045 80.571 31.2273C80.0786 30.2424 79.8324 29.053 79.8324 27.6591V16.5455H83.946V27.0227C83.946 28.1288 84.2491 29.0076 84.8551 29.6591C85.4612 30.3106 86.2566 30.6364 87.2415 30.6364C87.8475 30.6364 88.4347 30.4886 89.0028 30.1932C89.571 29.8977 90.0369 29.4583 90.4006 28.875C90.7718 28.2841 90.9574 27.5455 90.9574 26.6591ZM108.017 16.5455V19.7273H97.983V16.5455H108.017ZM100.46 12.3636H104.574V28.75C104.574 29.303 104.657 29.7273 104.824 30.0227C104.998 30.3106 105.225 30.5076 105.506 30.6136C105.786 30.7197 106.097 30.7727 106.438 30.7727C106.695 30.7727 106.93 30.7538 107.142 30.7159C107.362 30.678 107.528 30.6439 107.642 30.6136L108.335 33.8295C108.116 33.9053 107.801 33.9886 107.392 34.0795C106.991 34.1705 106.498 34.2235 105.915 34.2386C104.884 34.2689 103.956 34.1136 103.131 33.7727C102.305 33.4242 101.65 32.8864 101.165 32.1591C100.688 31.4318 100.453 30.5227 100.46 29.4318V12.3636ZM111.457 34V16.5455H115.446V19.4545H115.628C115.946 18.447 116.491 17.6705 117.264 17.125C118.045 16.572 118.935 16.2955 119.935 16.2955C120.162 16.2955 120.416 16.3068 120.696 16.3295C120.984 16.3447 121.223 16.3712 121.412 16.4091V20.1932C121.238 20.1326 120.961 20.0795 120.582 20.0341C120.211 19.9811 119.851 19.9545 119.503 19.9545C118.753 19.9545 118.079 20.1174 117.48 20.4432C116.889 20.7614 116.423 21.2045 116.082 21.7727C115.741 22.3409 115.571 22.9962 115.571 23.7386V34H111.457ZM124.145 34V16.5455H128.259V34H124.145ZM126.213 14.0682C125.562 14.0682 125.001 13.8523 124.531 13.4205C124.062 12.9811 123.827 12.4545 123.827 11.8409C123.827 11.2197 124.062 10.6932 124.531 10.2614C125.001 9.82197 125.562 9.60227 126.213 9.60227C126.872 9.60227 127.433 9.82197 127.895 10.2614C128.365 10.6932 128.599 11.2197 128.599 11.8409C128.599 12.4545 128.365 12.9811 127.895 13.4205C127.433 13.8523 126.872 14.0682 126.213 14.0682Z" fill="#41E284"/>
<path d="M132.67 34V10.7273H136.886V30.4659H147.136V34H132.67ZM158.227 34.3409C156.523 34.3409 155.045 33.9659 153.795 33.2159C152.545 32.4659 151.576 31.4167 150.886 30.0682C150.205 28.7197 149.864 27.1439 149.864 25.3409C149.864 23.5379 150.205 21.9583 150.886 20.6023C151.576 19.2462 152.545 18.1932 153.795 17.4432C155.045 16.6932 156.523 16.3182 158.227 16.3182C159.932 16.3182 161.409 16.6932 162.659 17.4432C163.909 18.1932 164.875 19.2462 165.557 20.6023C166.246 21.9583 166.591 23.5379 166.591 25.3409C166.591 27.1439 166.246 28.7197 165.557 30.0682C164.875 31.4167 163.909 32.4659 162.659 33.2159C161.409 33.9659 159.932 34.3409 158.227 34.3409ZM158.25 31.0455C159.174 31.0455 159.947 30.7917 160.568 30.2841C161.189 29.7689 161.652 29.0795 161.955 28.2159C162.265 27.3523 162.42 26.3902 162.42 25.3295C162.42 24.2614 162.265 23.2955 161.955 22.4318C161.652 21.5606 161.189 20.8674 160.568 20.3523C159.947 19.8371 159.174 19.5795 158.25 19.5795C157.303 19.5795 156.515 19.8371 155.886 20.3523C155.265 20.8674 154.799 21.5606 154.489 22.4318C154.186 23.2955 154.034 24.2614 154.034 25.3295C154.034 26.3902 154.186 27.3523 154.489 28.2159C154.799 29.0795 155.265 29.7689 155.886 30.2841C156.515 30.7917 157.303 31.0455 158.25 31.0455ZM177.673 40.9091C176.196 40.9091 174.927 40.7083 173.866 40.3068C172.806 39.9129 171.954 39.3826 171.31 38.7159C170.666 38.0492 170.219 37.3106 169.969 36.5L173.673 35.6023C173.84 35.9432 174.082 36.2803 174.401 36.6136C174.719 36.9545 175.147 37.2348 175.685 37.4545C176.23 37.6818 176.916 37.7955 177.741 37.7955C178.908 37.7955 179.874 37.5114 180.639 36.9432C181.404 36.3826 181.787 35.4583 181.787 34.1705V30.8636H181.582C181.37 31.2879 181.06 31.7235 180.651 32.1705C180.249 32.6174 179.715 32.9924 179.048 33.2955C178.389 33.5985 177.56 33.75 176.56 33.75C175.219 33.75 174.003 33.4356 172.912 32.8068C171.829 32.1705 170.965 31.2235 170.321 29.9659C169.685 28.7008 169.366 27.1174 169.366 25.2159C169.366 23.2992 169.685 21.6818 170.321 20.3636C170.965 19.0379 171.832 18.0341 172.923 17.3523C174.014 16.6629 175.23 16.3182 176.571 16.3182C177.594 16.3182 178.435 16.4924 179.094 16.8409C179.76 17.1818 180.291 17.5947 180.685 18.0795C181.079 18.5568 181.378 19.0076 181.582 19.4318H181.81V16.5455H185.866V34.2841C185.866 35.7765 185.51 37.0114 184.798 37.9886C184.086 38.9659 183.113 39.697 181.878 40.1818C180.643 40.6667 179.241 40.9091 177.673 40.9091ZM177.707 30.5227C178.579 30.5227 179.321 30.3106 179.935 29.8864C180.548 29.4621 181.014 28.8523 181.332 28.0568C181.651 27.2614 181.81 26.3068 181.81 25.1932C181.81 24.0947 181.651 23.1326 181.332 22.3068C181.022 21.4811 180.56 20.8409 179.946 20.3864C179.34 19.9242 178.594 19.6932 177.707 19.6932C176.791 19.6932 176.026 19.9318 175.412 20.4091C174.798 20.8864 174.336 21.5417 174.026 22.375C173.715 23.2008 173.56 24.1402 173.56 25.1932C173.56 26.2614 173.715 27.197 174.026 28C174.344 28.7955 174.81 29.4167 175.423 29.8636C176.045 30.303 176.806 30.5227 177.707 30.5227ZM190.082 34V16.5455H194.196V34H190.082ZM192.151 14.0682C191.499 14.0682 190.938 13.8523 190.469 13.4205C189.999 12.9811 189.764 12.4545 189.764 11.8409C189.764 11.2197 189.999 10.6932 190.469 10.2614C190.938 9.82197 191.499 9.60227 192.151 9.60227C192.81 9.60227 193.37 9.82197 193.832 10.2614C194.302 10.6932 194.537 11.2197 194.537 11.8409C194.537 12.4545 194.302 12.9811 193.832 13.4205C193.37 13.8523 192.81 14.0682 192.151 14.0682ZM206.04 34.3409C204.297 34.3409 202.801 33.9583 201.551 33.1932C200.309 32.428 199.35 31.3712 198.676 30.0227C198.009 28.6667 197.676 27.1061 197.676 25.3409C197.676 23.5682 198.017 22.0038 198.699 20.6477C199.381 19.2841 200.343 18.2235 201.585 17.4659C202.835 16.7008 204.313 16.3182 206.017 16.3182C207.434 16.3182 208.688 16.5795 209.778 17.1023C210.877 17.6174 211.752 18.3485 212.403 19.2955C213.055 20.2348 213.426 21.3333 213.517 22.5909H209.585C209.426 21.75 209.047 21.0492 208.449 20.4886C207.858 19.9205 207.066 19.6364 206.074 19.6364C205.233 19.6364 204.494 19.8636 203.858 20.3182C203.222 20.7652 202.725 21.4091 202.369 22.25C202.021 23.0909 201.847 24.0985 201.847 25.2727C201.847 26.4621 202.021 27.4848 202.369 28.3409C202.718 29.1894 203.206 29.8447 203.835 30.3068C204.472 30.7614 205.218 30.9886 206.074 30.9886C206.68 30.9886 207.222 30.875 207.699 30.6477C208.184 30.4129 208.589 30.0758 208.915 29.6364C209.241 29.197 209.464 28.6629 209.585 28.0341H213.517C213.419 29.2689 213.055 30.3636 212.426 31.3182C211.797 32.2652 210.941 33.0076 209.858 33.5455C208.775 34.0758 207.502 34.3409 206.04 34.3409Z" fill="#00BFEF"/>
</svg>
