<svg width="50" height="50" viewBox="0 0 50 50" fill="none" xmlns="http://www.w3.org/2000/svg">
<path d="M12.1333 7.56669L25 20.4334L37.8 7.63335C38.0828 7.33241 38.4234 7.09167 38.8014 6.92556C39.1794 6.75945 39.5871 6.6714 40 6.66669C40.8841 6.66669 41.7319 7.01788 42.357 7.643C42.9822 8.26812 43.3333 9.11597 43.3333 10C43.3411 10.4087 43.2653 10.8146 43.1105 11.193C42.9558 11.5713 42.7253 11.914 42.4333 12.2L29.4667 25L42.4333 37.9667C42.9827 38.5042 43.3049 39.232 43.3333 40C43.3333 40.8841 42.9822 41.7319 42.357 42.357C41.7319 42.9822 40.8841 43.3334 40 43.3334C39.5752 43.351 39.1514 43.2801 38.7554 43.1251C38.3595 42.9702 38.0001 42.7346 37.7 42.4334L25 29.5667L12.1667 42.4C11.885 42.6909 11.5486 42.9232 11.1767 43.0834C10.8048 43.2436 10.4049 43.3285 10 43.3334C9.11596 43.3334 8.26811 42.9822 7.64299 42.357C7.01787 41.7319 6.66668 40.8841 6.66668 40C6.65891 39.5913 6.73473 39.1854 6.8895 38.8071C7.04426 38.4288 7.2747 38.0861 7.56668 37.8L20.5333 25L7.56668 12.0334C7.0173 11.4959 6.69515 10.7681 6.66668 10C6.66668 9.11597 7.01787 8.26812 7.64299 7.643C8.26811 7.01788 9.11596 6.66669 10 6.66669C10.8 6.67669 11.5667 7.00002 12.1333 7.56669Z" fill="black"/>
</svg>
