<svg width="165" height="35" viewBox="0 0 165 35" fill="none" xmlns="http://www.w3.org/2000/svg">
<path d="M32.7276 23.028C29.7966 28.7683 21.4697 34.2972 20.8442 33.3173C20.2188 32.3374 24.8009 26.2469 23.9714 21.5582C23.1146 16.715 8.34847 10.779 14.59 10.779C16.4662 10.779 22.5434 13.0201 27.0986 10.779C30.7169 8.99895 30.6388 7.69173 31.4767 4.40963C33.9784 -5.38956 35.6586 17.2878 32.7276 23.028Z" fill="#01C1F0" stroke="#02BDF0"/>
<path d="M22.7206 0.5C25.6735 0.5 27.8492 2.35693 27.8495 4.40918C27.8495 6.46161 25.6738 8.31934 22.7206 8.31934C19.7674 8.31933 17.5917 6.46161 17.5917 4.40918C17.592 2.35693 19.7676 0.500008 22.7206 0.5Z" fill="#01C1F0" stroke="#02BDF0"/>
<path d="M2.24878 7.33611C2.61489 6.96397 3.10533 6.722 3.67065 6.8781C4.1831 7.01975 4.61883 7.4578 5.00366 8.06071C5.53503 8.89324 6.83412 11.3304 10.3591 12.256C12.3314 12.7739 14.5934 14.189 16.5056 15.9416C18.4169 17.6933 20.0492 19.847 20.6951 21.8986C21.4193 24.1992 21.5914 26.117 21.321 27.7941C21.0501 29.4745 20.3415 30.8764 19.365 32.1515C19.2823 32.2595 19.1936 32.3618 19.1033 32.4621C18.7317 32.2408 18.24 31.9366 17.6873 31.5578C16.4546 30.7129 14.9302 29.5166 13.7195 28.0939C12.503 26.6644 11.4282 24.8637 10.6531 23.4064C10.2671 22.6807 9.95798 22.0452 9.74585 21.592C9.63986 21.3655 9.55769 21.1844 9.50269 21.0607C9.47522 20.999 9.45498 20.9509 9.44116 20.9191L9.42163 20.8752L9.42065 20.8732V20.8722L9.41968 20.8732C9.3116 20.6192 9.0194 20.5007 8.76538 20.6086C8.51162 20.7167 8.39291 21.0099 8.50073 21.2638V21.2658C8.50108 21.2665 8.50221 21.2676 8.50269 21.2687C8.50367 21.2711 8.50486 21.2745 8.50659 21.2785C8.51048 21.2875 8.51675 21.3015 8.52417 21.3185C8.53906 21.3528 8.56107 21.4028 8.5896 21.467C8.64698 21.5959 8.73166 21.7831 8.84058 22.0158C9.05839 22.4811 9.37486 23.1317 9.77026 23.8752C10.5587 25.3575 11.6727 27.2322 12.9578 28.7424C14.2487 30.2593 15.8528 31.5131 17.1218 32.383C17.5729 32.6922 17.9864 32.9512 18.3298 33.1613C17.3186 33.907 16.0249 34.3078 14.5896 34.3078C13.5338 34.3077 12.2116 33.8703 10.8347 33.1642C9.44442 32.4512 7.94659 31.4371 6.5271 30.2238C3.70239 27.8094 1.10912 24.5376 0.342529 21.1799C-0.25325 18.57 -0.0314813 14.163 0.696045 10.9904C0.879253 10.1916 1.09679 9.45619 1.34839 8.83904C1.59652 8.23053 1.89291 7.69795 2.24878 7.33611Z" fill="#40E184"/>
<path d="M60.0653 8.54545V26H57.2528L49.0284 14.1108H48.8835V26H45.7216V8.54545H48.5511L56.767 20.4432H56.9205V8.54545H60.0653ZM71.718 20.4943V12.9091H74.8033V26H71.8118V23.6733H71.6754C71.38 24.4062 70.8942 25.0057 70.218 25.4716C69.5476 25.9375 68.7209 26.1705 67.7379 26.1705C66.88 26.1705 66.1214 25.9801 65.4624 25.5994C64.8089 25.2131 64.2976 24.6534 63.9283 23.9205C63.5589 23.1818 63.3743 22.2898 63.3743 21.2443V12.9091H66.4595V20.767C66.4595 21.5966 66.6868 22.2557 67.1413 22.7443C67.5959 23.233 68.1925 23.4773 68.9311 23.4773C69.3857 23.4773 69.826 23.3665 70.2521 23.1449C70.6783 22.9233 71.0277 22.5938 71.3004 22.1562C71.5788 21.7131 71.718 21.1591 71.718 20.4943ZM84.5128 12.9091V15.2955H76.9872V12.9091H84.5128ZM78.8452 9.77273H81.9304V22.0625C81.9304 22.4773 81.9929 22.7955 82.1179 23.017C82.2486 23.233 82.419 23.3807 82.6293 23.4602C82.8395 23.5398 83.0724 23.5795 83.3281 23.5795C83.5213 23.5795 83.6974 23.5653 83.8565 23.5369C84.0213 23.5085 84.1463 23.483 84.2315 23.4602L84.7514 25.8722C84.5866 25.929 84.3509 25.9915 84.044 26.0597C83.7429 26.1278 83.3736 26.1676 82.9361 26.179C82.1634 26.2017 81.4673 26.0852 80.848 25.8295C80.2287 25.5682 79.7372 25.1648 79.3736 24.6193C79.0156 24.0739 78.8395 23.392 78.8452 22.5739V9.77273ZM87.093 26V12.9091H90.0845V15.0909H90.2209C90.4595 14.3352 90.8686 13.7528 91.4482 13.3438C92.0334 12.929 92.701 12.7216 93.451 12.7216C93.6214 12.7216 93.8118 12.7301 94.022 12.7472C94.2379 12.7585 94.4169 12.7784 94.5589 12.8068V15.6449C94.4283 15.5994 94.2209 15.5597 93.9368 15.5256C93.6584 15.4858 93.3885 15.4659 93.1271 15.4659C92.5646 15.4659 92.0589 15.5881 91.6101 15.8324C91.1669 16.071 90.8175 16.4034 90.5618 16.8295C90.3061 17.2557 90.1783 17.7472 90.1783 18.304V26H87.093ZM96.6087 26V12.9091H99.6939V26H96.6087ZM98.1598 11.0511C97.6712 11.0511 97.2507 10.8892 96.8984 10.5653C96.5462 10.2358 96.37 9.84091 96.37 9.38068C96.37 8.91477 96.5462 8.51989 96.8984 8.19602C97.2507 7.86648 97.6712 7.7017 98.1598 7.7017C98.6541 7.7017 99.0746 7.86648 99.4212 8.19602C99.7734 8.51989 99.9496 8.91477 99.9496 9.38068C99.9496 9.84091 99.7734 10.2358 99.4212 10.5653C99.0746 10.8892 98.6541 11.0511 98.1598 11.0511Z" fill="#41E285"/>
<path d="M103.003 26V8.54545H106.165V23.3494H113.852V26H103.003ZM122.17 26.2557C120.892 26.2557 119.784 25.9744 118.847 25.4119C117.909 24.8494 117.182 24.0625 116.665 23.0511C116.153 22.0398 115.898 20.858 115.898 19.5057C115.898 18.1534 116.153 16.9687 116.665 15.9517C117.182 14.9347 117.909 14.1449 118.847 13.5824C119.784 13.0199 120.892 12.7386 122.17 12.7386C123.449 12.7386 124.557 13.0199 125.494 13.5824C126.432 14.1449 127.156 14.9347 127.668 15.9517C128.185 16.9687 128.443 18.1534 128.443 19.5057C128.443 20.858 128.185 22.0398 127.668 23.0511C127.156 24.0625 126.432 24.8494 125.494 25.4119C124.557 25.9744 123.449 26.2557 122.17 26.2557ZM122.188 23.7841C122.881 23.7841 123.46 23.5937 123.926 23.2131C124.392 22.8267 124.739 22.3097 124.966 21.6619C125.199 21.0142 125.315 20.2926 125.315 19.4972C125.315 18.696 125.199 17.9716 124.966 17.3239C124.739 16.6705 124.392 16.1506 123.926 15.7642C123.46 15.3778 122.881 15.1847 122.188 15.1847C121.477 15.1847 120.886 15.3778 120.415 15.7642C119.949 16.1506 119.599 16.6705 119.366 17.3239C119.139 17.9716 119.026 18.696 119.026 19.4972C119.026 20.2926 119.139 21.0142 119.366 21.6619C119.599 22.3097 119.949 22.8267 120.415 23.2131C120.886 23.5937 121.477 23.7841 122.188 23.7841ZM136.755 31.1818C135.647 31.1818 134.695 31.0313 133.9 30.7301C133.104 30.4347 132.465 30.0369 131.982 29.5369C131.499 29.0369 131.164 28.483 130.977 27.875L133.755 27.2017C133.88 27.4574 134.062 27.7102 134.3 27.9602C134.539 28.2159 134.86 28.4261 135.263 28.5909C135.673 28.7614 136.187 28.8466 136.806 28.8466C137.681 28.8466 138.406 28.6335 138.979 28.2074C139.553 27.7869 139.84 27.0938 139.84 26.1278V23.6477H139.687C139.528 23.9659 139.295 24.2926 138.988 24.6278C138.687 24.9631 138.286 25.2443 137.786 25.4716C137.292 25.6989 136.67 25.8125 135.92 25.8125C134.914 25.8125 134.002 25.5767 133.184 25.1051C132.371 24.6278 131.724 23.9176 131.241 22.9744C130.763 22.0256 130.525 20.8381 130.525 19.4119C130.525 17.9744 130.763 16.7614 131.241 15.7727C131.724 14.7784 132.374 14.0256 133.192 13.5142C134.011 12.9972 134.923 12.7386 135.928 12.7386C136.695 12.7386 137.326 12.8693 137.82 13.1307C138.32 13.3864 138.718 13.696 139.013 14.0597C139.309 14.4176 139.533 14.7557 139.687 15.0739H139.857V12.9091H142.9V26.2131C142.9 27.3324 142.633 28.2585 142.099 28.9915C141.565 29.7244 140.835 30.2727 139.908 30.6364C138.982 31 137.931 31.1818 136.755 31.1818ZM136.781 23.392C137.434 23.392 137.991 23.233 138.451 22.9148C138.911 22.5966 139.261 22.1392 139.499 21.5426C139.738 20.946 139.857 20.2301 139.857 19.3949C139.857 18.571 139.738 17.8494 139.499 17.2301C139.266 16.6108 138.92 16.1307 138.46 15.7898C138.005 15.4432 137.445 15.2699 136.781 15.2699C136.093 15.2699 135.519 15.4489 135.059 15.8068C134.599 16.1648 134.252 16.6562 134.019 17.2812C133.786 17.9006 133.67 18.6051 133.67 19.3949C133.67 20.196 133.786 20.8977 134.019 21.5C134.258 22.0966 134.607 22.5625 135.067 22.8977C135.533 23.2273 136.104 23.392 136.781 23.392ZM146.062 26V12.9091H149.147V26H146.062ZM147.613 11.0511C147.124 11.0511 146.704 10.8892 146.352 10.5653C145.999 10.2358 145.823 9.84091 145.823 9.38068C145.823 8.91477 145.999 8.51989 146.352 8.19602C146.704 7.86648 147.124 7.7017 147.613 7.7017C148.107 7.7017 148.528 7.86648 148.874 8.19602C149.227 8.51989 149.403 8.91477 149.403 9.38068C149.403 9.84091 149.227 10.2358 148.874 10.5653C148.528 10.8892 148.107 11.0511 147.613 11.0511ZM158.03 26.2557C156.723 26.2557 155.601 25.9688 154.663 25.3949C153.732 24.821 153.013 24.0284 152.507 23.017C152.007 22 151.757 20.8295 151.757 19.5057C151.757 18.1761 152.013 17.0028 152.524 15.9858C153.036 14.9631 153.757 14.1676 154.689 13.5994C155.626 13.0256 156.734 12.7386 158.013 12.7386C159.075 12.7386 160.016 12.9347 160.834 13.3267C161.658 13.7131 162.314 14.2614 162.803 14.9716C163.291 15.6761 163.57 16.5 163.638 17.4432H160.689C160.57 16.8125 160.286 16.2869 159.837 15.8665C159.393 15.4403 158.8 15.2273 158.055 15.2273C157.425 15.2273 156.871 15.3977 156.393 15.7386C155.916 16.0739 155.544 16.5568 155.277 17.1875C155.016 17.8182 154.885 18.5739 154.885 19.4545C154.885 20.3466 155.016 21.1136 155.277 21.7557C155.538 22.392 155.905 22.8835 156.376 23.2301C156.854 23.571 157.413 23.7415 158.055 23.7415C158.51 23.7415 158.916 23.6562 159.274 23.4858C159.638 23.3097 159.942 23.0568 160.186 22.7273C160.43 22.3977 160.598 21.9972 160.689 21.5256H163.638C163.564 22.4517 163.291 23.2727 162.82 23.9886C162.348 24.6989 161.706 25.2557 160.893 25.6591C160.081 26.0568 159.126 26.2557 158.03 26.2557Z" fill="#00C4EF"/>
</svg>
